<svg id="svg" version="1.1" xmlns="http://www.w3.org/2000/svg" xmlns:xlink="http://www.w3.org/1999/xlink" width="400" height="463.50710900473933" viewBox="0, 0, 400,463.50710900473933"><g id="svgg"><path id="path0" d="M152.200 10.432 C 147.676 11.359,142.654 11.413,140.143 10.560 C 137.922 9.806,132.363 9.911,132.096 10.711 C 132.007 10.980,131.747 11.200,131.519 11.200 C 131.292 11.200,130.460 11.767,129.671 12.460 C 126.964 14.837,121.443 16.752,117.200 16.787 C 113.139 16.820,111.403 18.915,110.956 24.322 C 110.726 27.100,110.462 28.009,109.341 29.871 C 108.603 31.095,108.000 32.227,108.000 32.386 C 108.000 33.469,106.510 33.984,105.765 33.159 C 98.915 25.574,88.723 27.338,81.275 37.400 C 79.809 39.380,77.339 42.350,75.785 44.000 C 74.232 45.650,71.992 48.620,70.808 50.600 C 69.340 53.053,67.293 55.602,64.383 58.600 C 59.729 63.395,58.538 65.072,54.871 72.000 C 50.509 80.241,49.115 85.563,47.799 99.000 C 46.191 115.415,45.420 120.519,43.422 127.951 C 42.439 131.608,40.637 139.019,39.417 144.421 C 38.198 149.823,36.569 156.115,35.798 158.405 C 32.799 167.311,31.884 175.325,33.173 181.400 C 33.640 183.600,34.547 187.920,35.190 191.000 C 37.404 201.613,38.023 202.834,41.013 202.497 C 46.344 201.897,46.238 206.578,40.822 210.954 C 39.270 212.208,38.000 213.536,38.000 213.904 C 38.000 214.512,37.221 216.972,36.386 219.000 C 29.843 234.893,29.419 241.235,34.793 242.845 L 36.434 243.337 38.444 241.368 C 42.176 237.714,43.859 234.983,47.626 226.464 C 50.384 220.227,56.368 221.182,57.394 228.022 C 57.753 230.416,56.588 241.822,55.599 245.600 C 54.345 250.388,54.500 252.251,56.367 254.858 C 60.172 260.172,62.218 266.800,60.054 266.800 C 56.566 266.800,49.231 260.288,46.381 254.663 C 43.929 249.822,36.685 245.529,34.800 247.800 C 34.526 248.130,34.138 248.400,33.937 248.400 C 33.735 248.400,32.453 249.256,31.085 250.301 C 29.718 251.347,27.580 252.736,26.333 253.387 C 23.287 254.978,22.983 256.335,25.212 258.400 C 28.007 260.991,30.042 261.771,41.036 264.467 C 44.830 265.397,45.821 267.945,43.047 269.637 C 41.352 270.670,38.773 270.609,34.072 269.423 C 28.407 267.993,26.539 267.844,21.419 268.415 C 9.613 269.731,7.675 262.862,17.916 256.000 C 21.153 253.831,21.317 251.115,18.744 242.275 C 17.572 238.246,15.621 239.621,12.046 247.000 C 11.193 248.760,8.830 253.598,6.794 257.752 C 1.148 269.275,1.370 274.768,7.721 280.648 C 12.094 284.697,13.207 285.016,22.570 284.908 C 41.056 284.693,44.339 288.407,39.538 304.098 C 35.980 315.727,37.631 321.269,45.838 325.241 C 50.053 327.281,50.038 327.249,47.852 329.585 C 43.797 333.921,44.483 335.594,53.611 343.637 C 59.326 348.672,59.958 351.550,56.811 358.200 C 53.218 365.793,52.416 370.092,53.175 377.674 C 55.705 402.940,74.183 410.207,124.600 405.768 C 142.169 404.220,143.405 404.807,145.602 415.734 C 146.450 419.955,153.831 438.261,156.613 443.045 C 159.320 447.701,165.591 450.563,178.994 453.261 L 187.000 454.872 192.082 454.156 L 197.163 453.440 200.371 454.367 C 203.901 455.387,203.767 455.397,210.600 453.631 C 217.568 451.830,220.465 450.275,225.215 445.786 C 229.166 442.052,229.188 442.038,233.288 440.776 C 238.861 439.060,239.303 438.794,243.200 434.809 C 251.694 426.122,263.662 420.768,268.284 423.586 C 271.377 425.472,271.400 425.632,271.400 445.500 L 271.400 463.200 299.638 463.200 L 327.876 463.200 327.838 456.300 C 327.790 447.661,328.169 446.231,331.610 442.040 C 332.947 440.411,334.951 437.531,336.065 435.640 C 337.178 433.748,339.347 430.337,340.885 428.059 C 347.281 418.586,347.896 414.215,342.446 416.977 C 339.295 418.574,335.997 417.920,332.926 415.089 C 329.923 412.321,326.726 404.878,326.002 398.965 C 325.429 394.293,325.049 392.951,323.688 390.794 C 320.069 385.056,319.289 372.885,322.243 368.246 C 326.123 362.153,331.748 362.794,335.877 369.799 C 339.894 376.614,341.356 376.974,344.297 371.871 C 347.527 366.268,350.081 364.378,358.400 361.435 C 368.206 357.966,370.209 348.865,362.631 342.212 C 358.191 338.314,357.433 335.835,358.752 329.529 C 359.197 327.399,359.675 324.249,359.814 322.529 C 360.179 317.995,360.666 315.283,362.230 309.093 C 363.724 303.181,364.761 291.472,364.808 280.000 C 364.859 267.541,365.776 264.356,370.872 258.935 C 381.055 248.102,385.451 239.230,386.796 226.800 C 387.314 222.008,387.776 220.023,390.197 212.200 C 393.476 201.603,394.115 197.622,393.761 190.000 C 393.329 180.726,393.713 176.413,395.149 174.400 C 397.404 171.239,397.743 149.162,395.598 145.200 C 390.519 135.821,389.147 131.936,388.396 124.800 C 387.829 119.416,387.174 116.592,385.411 111.950 C 384.628 109.887,383.348 105.609,382.566 102.442 C 380.156 92.671,377.099 84.998,373.386 79.400 C 371.150 76.028,370.553 74.887,367.808 68.746 C 361.888 55.501,354.974 48.744,345.572 47.016 C 341.290 46.230,339.880 45.586,336.800 43.013 C 329.521 36.933,323.489 37.394,319.592 44.328 C 317.650 47.783,309.907 49.861,305.182 48.194 C 304.237 47.860,301.829 46.268,299.832 44.656 C 291.236 37.718,287.160 35.694,281.301 35.456 C 277.966 35.321,276.764 35.069,273.384 33.796 C 271.193 32.971,267.468 31.963,265.107 31.557 C 262.746 31.150,259.146 30.171,257.107 29.381 C 252.085 27.437,250.320 27.268,246.803 28.399 C 243.083 29.595,241.258 29.330,237.093 26.988 C 235.317 25.989,232.949 24.892,231.831 24.550 C 230.714 24.208,228.000 23.313,225.800 22.562 C 217.124 19.598,209.900 18.894,203.898 20.426 C 199.960 21.432,199.871 21.412,193.394 18.152 C 188.769 15.825,187.809 15.491,184.794 15.159 C 182.927 14.953,180.472 14.519,179.338 14.193 C 173.747 12.585,170.575 15.077,172.649 19.447 C 173.518 21.279,174.916 22.203,178.016 22.995 C 179.437 23.358,182.145 24.362,184.034 25.226 C 188.912 27.458,190.251 27.562,194.605 26.043 C 201.707 23.566,203.774 26.180,200.957 34.076 C 198.466 41.058,197.015 41.643,191.523 37.877 C 189.630 36.579,188.584 36.196,185.323 35.603 C 175.543 33.827,170.806 32.832,169.938 32.372 C 168.673 31.701,167.201 29.955,167.200 29.124 C 167.200 28.752,167.009 28.329,166.775 28.185 C 166.542 28.040,166.175 27.461,165.961 26.897 L 165.571 25.871 164.185 27.214 C 163.423 27.953,162.800 28.783,162.800 29.060 C 162.800 30.170,161.831 31.579,160.845 31.904 C 157.415 33.034,157.036 29.134,159.998 23.200 C 165.810 11.554,163.686 8.077,152.200 10.432 M140.280 32.481 C 143.308 34.900,140.198 41.342,134.863 43.702 C 132.003 44.967,122.482 45.228,119.956 44.110 C 117.811 43.161,115.200 40.961,115.200 40.103 C 115.200 38.245,121.116 36.042,127.262 35.610 C 130.874 35.357,131.819 35.141,133.462 34.194 C 138.189 31.469,138.816 31.312,140.280 32.481 M108.800 38.062 C 108.800 38.533,108.511 38.800,108.000 38.800 C 107.346 38.800,107.200 38.533,107.200 37.338 C 107.200 35.901,107.214 35.889,108.000 36.600 C 108.440 36.998,108.800 37.656,108.800 38.062 M174.674 51.270 C 176.634 53.111,175.381 58.800,173.016 58.800 C 170.694 58.800,169.820 52.015,172.000 50.916 C 173.357 50.232,173.604 50.265,174.674 51.270 M150.716 53.335 C 151.941 54.559,152.311 57.438,151.616 60.334 C 150.842 63.559,150.323 63.726,142.501 63.254 C 141.063 63.167,138.553 60.620,138.084 58.770 C 136.965 54.365,147.300 49.918,150.716 53.335 M128.020 54.610 C 130.584 55.936,128.731 61.381,125.000 63.485 C 120.549 65.994,116.899 62.831,119.373 58.609 C 121.563 54.874,125.240 53.173,128.020 54.610 M208.023 55.129 C 208.585 55.498,209.890 56.339,210.923 56.997 C 213.496 58.638,213.351 59.238,209.950 60.998 C 208.383 61.809,206.248 63.085,205.207 63.833 C 199.289 68.085,195.919 66.738,198.854 61.294 C 202.107 55.262,205.128 53.230,208.023 55.129 M266.167 67.043 C 267.863 67.694,266.904 69.600,264.880 69.600 C 262.865 69.600,262.000 69.104,262.000 67.948 C 262.000 67.063,264.695 66.478,266.167 67.043 M188.800 69.711 C 188.800 72.483,188.024 73.200,185.023 73.200 C 180.554 73.200,179.361 74.465,178.799 79.800 C 178.359 83.967,178.383 83.919,175.364 86.586 C 173.941 87.844,171.784 90.116,170.572 91.635 C 169.233 93.313,167.747 94.697,166.784 95.162 L 165.200 95.927 165.200 93.843 C 165.200 92.218,165.562 91.011,166.839 88.379 C 167.741 86.520,169.010 83.537,169.659 81.748 C 171.098 77.788,172.856 75.637,175.908 74.102 C 179.202 72.445,180.000 71.883,180.000 71.223 C 180.000 69.387,182.444 68.000,185.678 68.000 L 188.800 68.000 188.800 69.711 M89.461 73.788 C 91.087 74.927,91.849 77.477,92.362 83.490 C 93.305 94.551,94.693 98.139,99.220 101.213 C 102.213 103.246,102.760 104.091,103.229 107.402 C 104.213 114.353,106.835 116.792,113.326 116.798 C 117.729 116.801,118.808 118.206,118.790 123.908 C 118.768 131.023,117.818 132.139,111.710 132.216 C 105.985 132.288,105.281 132.661,103.243 136.711 C 100.506 142.151,97.932 142.406,93.018 137.726 C 90.259 135.097,88.306 134.006,86.797 134.247 C 83.085 134.840,79.222 132.032,74.755 125.493 C 73.368 123.462,71.346 120.990,70.263 120.000 C 64.437 114.678,63.200 112.988,63.200 110.351 C 63.200 108.679,65.192 108.783,68.894 110.647 C 76.326 114.390,77.403 113.837,75.821 107.092 C 74.270 100.478,73.838 92.854,74.949 91.698 C 75.334 91.298,75.981 91.478,78.143 92.585 C 85.492 96.348,87.180 94.366,85.184 84.320 C 83.675 76.722,83.673 75.865,85.169 74.369 C 86.475 73.063,88.110 72.842,89.461 73.788 M146.393 82.451 C 146.126 82.973,145.229 84.120,144.401 85.000 C 143.531 85.925,142.436 87.781,141.806 89.400 C 138.308 98.381,131.141 101.407,129.757 94.487 C 128.990 90.651,131.106 87.054,135.400 84.894 C 136.720 84.231,138.143 83.308,138.562 82.844 C 138.981 82.380,139.628 82.000,140.000 82.000 C 140.372 82.000,140.993 81.649,141.381 81.221 C 143.099 79.323,147.451 80.391,146.393 82.451 M294.180 85.723 C 295.837 87.380,295.074 93.276,292.885 95.742 C 291.269 97.562,285.200 98.930,285.200 97.475 C 285.200 96.712,286.604 94.047,287.979 92.200 C 288.634 91.320,289.466 90.060,289.829 89.400 C 290.427 88.311,293.154 85.200,293.510 85.200 C 293.591 85.200,293.893 85.435,294.180 85.723 M234.759 87.414 C 236.499 89.396,236.370 90.418,234.108 92.585 C 231.186 95.385,228.291 96.764,226.940 96.000 C 223.974 94.323,224.909 91.991,230.200 87.870 C 233.078 85.628,233.182 85.618,234.759 87.414 M163.938 98.675 C 164.953 100.489,162.297 105.018,157.955 108.879 C 154.897 111.598,152.993 114.144,150.621 118.689 C 148.300 123.135,147.673 123.665,144.901 123.520 L 142.600 123.400 142.476 121.676 C 142.292 119.131,143.637 116.720,147.427 112.800 C 149.664 110.486,151.257 108.378,152.414 106.200 C 154.507 102.263,155.258 101.407,157.800 100.064 C 161.849 97.924,163.330 97.589,163.938 98.675 M245.760 102.531 C 247.978 105.516,246.618 111.190,243.059 113.800 C 239.309 116.550,238.728 116.796,235.975 116.798 C 230.296 116.802,229.586 111.724,234.778 108.237 C 235.748 107.585,237.725 105.943,239.171 104.589 C 243.238 100.780,244.229 100.471,245.760 102.531 M299.875 109.077 C 302.097 113.822,302.102 115.111,299.909 117.908 C 297.677 120.755,296.654 122.769,296.002 125.600 C 295.198 129.091,294.705 129.424,292.892 127.700 C 288.210 123.248,290.602 108.753,296.400 106.448 C 298.155 105.751,298.406 105.941,299.875 109.077 M262.862 137.600 C 263.455 137.785,264.666 137.765,265.603 137.555 C 272.553 135.993,274.801 137.616,273.613 143.337 C 272.659 147.934,268.858 148.228,262.923 144.165 C 261.608 143.264,261.109 143.151,259.276 143.334 C 257.100 143.552,256.552 143.834,249.800 148.210 C 244.519 151.633,242.449 151.240,244.943 147.290 C 246.433 144.930,255.460 137.545,257.400 137.099 C 258.386 136.873,261.430 137.152,262.862 137.600 M133.631 149.169 C 135.848 151.386,134.631 155.090,132.039 154.016 C 130.178 153.245,129.444 151.614,130.049 149.593 C 130.647 147.598,131.910 147.448,133.631 149.169 M275.292 153.500 C 281.109 158.004,278.944 162.467,269.908 164.597 C 257.579 167.504,254.486 161.571,265.000 155.183 C 270.318 151.952,272.773 151.550,275.292 153.500 M96.698 155.809 C 100.326 157.619,102.532 163.581,102.317 171.000 C 102.197 175.177,102.693 177.001,105.513 182.743 C 108.130 188.070,108.829 188.470,116.200 188.846 C 128.551 189.477,135.622 192.006,137.570 196.489 C 140.089 202.288,141.003 203.961,142.656 205.800 C 146.217 209.762,152.000 218.948,152.000 220.641 C 152.000 222.555,149.984 223.871,142.514 226.835 C 131.612 231.159,130.646 231.941,131.846 235.475 C 133.057 239.043,131.627 244.913,129.286 245.979 C 128.742 246.227,126.778 246.400,124.921 246.363 C 121.175 246.289,121.795 245.961,117.181 250.458 C 112.594 254.927,106.152 250.638,109.500 245.345 C 110.579 243.638,111.604 242.961,115.522 241.361 C 116.600 240.922,117.805 239.954,118.742 238.777 C 120.435 236.651,123.691 233.724,125.052 233.103 C 126.974 232.228,126.913 230.849,124.754 226.298 C 123.666 224.003,122.575 221.049,122.330 219.732 C 121.875 217.285,121.902 217.078,123.585 210.439 C 125.354 203.461,115.850 195.600,105.645 195.600 C 103.701 195.600,101.171 195.422,100.024 195.205 C 98.878 194.987,95.968 194.623,93.559 194.396 C 88.742 193.942,87.118 193.485,82.264 191.221 C 80.469 190.384,78.110 189.311,77.022 188.837 C 71.716 186.527,69.752 183.132,71.793 179.800 C 73.421 177.141,76.541 169.983,77.809 166.000 C 79.764 159.853,82.989 157.200,88.504 157.200 C 90.131 157.200,91.639 157.001,91.886 156.754 C 93.378 155.262,94.973 154.949,96.698 155.809 M234.800 156.525 C 234.800 157.952,233.107 160.000,231.927 160.000 C 231.581 160.000,231.087 160.254,230.830 160.564 C 230.384 161.101,227.933 161.512,224.000 161.710 C 222.384 161.791,222.186 161.704,222.067 160.860 C 221.761 158.696,228.120 155.335,232.700 155.243 L 234.800 155.200 234.800 156.525 M238.774 165.467 C 241.208 166.253,244.400 168.888,244.400 170.111 C 244.400 172.226,237.425 177.200,234.460 177.200 C 231.974 177.200,228.800 172.985,228.800 169.684 C 228.800 165.851,233.634 163.807,238.774 165.467 M215.862 169.432 C 218.828 172.884,215.389 178.455,207.951 182.245 C 205.908 183.286,205.499 183.344,199.800 183.393 C 194.289 183.440,193.453 183.548,189.540 184.722 C 178.364 188.075,174.121 183.859,184.603 179.816 C 186.801 178.968,189.950 177.598,191.600 176.771 C 193.250 175.944,196.310 174.779,198.400 174.182 C 200.490 173.585,203.240 172.535,204.511 171.849 C 211.422 168.114,211.763 167.972,213.362 168.158 C 214.420 168.282,215.226 168.693,215.862 169.432 M208.800 187.551 C 208.800 188.360,207.622 188.916,207.000 188.400 C 206.071 187.629,206.285 187.200,207.600 187.200 C 208.260 187.200,208.800 187.358,208.800 187.551 M264.804 188.202 C 267.467 189.579,270.339 198.039,268.894 200.250 C 267.137 202.939,257.200 197.572,257.200 193.934 C 257.200 189.651,261.435 186.460,264.804 188.202 M216.574 200.390 C 217.879 200.886,217.938 202.345,216.700 203.501 C 214.553 205.505,211.039 204.719,211.276 202.287 C 211.468 200.319,214.002 199.412,216.574 200.390 M70.000 208.847 C 70.000 209.041,70.349 209.200,70.776 209.200 C 71.203 209.200,71.666 209.384,71.805 209.609 C 72.123 210.123,69.602 210.011,68.900 209.480 C 68.094 208.870,68.300 208.049,69.200 208.284 C 69.640 208.399,70.000 208.652,70.000 208.847 M34.200 209.661 C 31.561 211.101,27.107 218.000,28.816 218.000 C 32.404 218.000,38.055 211.659,36.069 209.862 C 35.216 209.091,35.240 209.093,34.200 209.661 M267.525 215.945 C 267.632 217.015,267.519 217.200,266.757 217.200 C 264.853 217.200,263.633 214.875,265.100 214.043 C 266.134 213.457,267.374 214.430,267.525 215.945 M162.311 217.423 C 164.165 218.721,162.913 223.143,160.299 224.530 C 158.412 225.531,156.244 225.310,156.072 224.100 C 156.002 223.605,155.777 223.200,155.572 223.200 C 154.673 223.200,155.223 220.528,156.342 219.456 C 158.821 217.081,160.841 216.393,162.311 217.423 M235.423 219.109 C 237.783 221.091,238.244 227.904,236.136 229.653 C 234.265 231.206,228.980 229.882,227.780 227.560 C 225.575 223.297,231.979 216.216,235.423 219.109 M204.595 224.384 C 205.160 226.164,203.036 228.769,201.633 228.018 C 200.134 227.216,200.606 224.787,202.446 223.833 C 203.587 223.240,204.289 223.420,204.595 224.384 M172.428 230.900 C 174.598 232.770,174.899 233.447,174.184 234.859 C 171.938 239.292,167.200 239.116,167.200 234.600 C 167.200 232.248,167.755 231.508,170.000 230.870 C 171.879 230.336,171.771 230.335,172.428 230.900 M264.320 250.904 C 264.550 251.181,264.861 252.488,265.010 253.809 C 265.824 261.001,260.123 264.828,256.395 259.593 C 255.182 257.889,255.558 257.209,259.717 253.584 C 263.630 250.172,263.686 250.140,264.320 250.904 M282.800 257.538 C 282.800 257.724,282.440 258.202,282.000 258.600 C 281.192 259.332,280.683 258.251,281.467 257.467 C 281.848 257.086,282.800 257.137,282.800 257.538 M249.013 259.780 C 250.999 260.609,250.829 262.975,248.209 270.953 C 246.980 274.695,247.162 275.686,249.552 278.300 C 251.432 280.355,253.148 280.518,258.723 279.170 C 264.512 277.771,266.647 279.024,265.837 283.345 C 263.423 296.212,241.070 290.366,242.263 277.181 C 242.470 274.886,242.368 274.282,241.435 272.311 C 238.333 265.753,239.530 261.464,244.936 259.774 C 247.110 259.094,247.373 259.094,249.013 259.780 M63.996 274.861 C 65.985 277.038,66.833 280.075,67.180 286.262 C 67.351 289.308,67.687 292.250,67.927 292.800 C 72.627 303.587,73.108 311.238,69.195 313.002 C 65.189 314.809,61.256 310.608,61.176 304.437 C 61.131 300.932,60.140 294.194,59.486 292.948 C 58.862 291.758,57.817 290.748,55.442 289.038 C 53.254 287.462,54.058 285.032,59.459 276.900 C 61.893 273.235,62.332 273.038,63.996 274.861 M76.831 330.110 C 79.696 332.040,81.045 335.784,79.933 338.717 C 78.772 341.779,75.168 341.165,70.582 337.123 C 67.469 334.379,64.514 332.000,64.220 332.000 C 64.072 332.000,63.527 331.685,63.010 331.300 C 60.704 329.582,74.310 328.410,76.831 330.110 M307.706 420.821 C 312.066 423.708,313.166 431.000,309.225 430.888 C 304.697 430.760,296.795 421.341,300.100 420.012 C 302.227 419.158,305.762 419.533,307.706 420.821 " stroke="none" fill="#524e49" fill-rule="evenodd"></path><path id="path1" d="M0.038 133.300 L 0.075 266.600 0.984 263.000 C 2.079 258.663,4.673 251.713,7.927 244.400 C 9.249 241.430,11.089 236.930,12.016 234.400 C 15.154 225.840,20.041 216.937,26.232 208.501 C 31.798 200.915,32.069 199.627,30.204 189.600 C 27.702 176.149,27.835 177.420,28.360 172.000 C 28.990 165.494,29.586 162.690,32.440 152.800 C 34.612 145.275,39.225 125.887,40.673 118.200 C 41.067 116.110,41.384 110.697,41.589 102.600 C 42.010 85.911,42.692 82.581,47.778 72.400 C 51.382 65.183,53.944 61.544,60.632 54.137 C 62.410 52.169,65.872 47.598,68.326 43.979 C 78.656 28.748,85.238 23.478,97.584 20.551 C 102.916 19.287,104.840 18.188,107.750 14.744 C 110.574 11.402,112.145 10.538,118.602 8.777 C 121.241 8.058,124.769 6.873,126.442 6.144 C 134.394 2.682,141.342 2.037,146.800 4.253 C 148.298 4.861,149.776 4.987,155.600 5.004 C 162.335 5.023,162.744 5.071,166.400 6.273 C 168.490 6.960,171.550 7.635,173.200 7.772 C 178.140 8.184,188.351 10.409,192.200 11.913 C 195.724 13.289,195.964 13.325,203.600 13.624 C 214.794 14.063,228.085 16.875,237.618 20.822 C 241.796 22.553,241.805 22.554,247.251 22.629 C 252.217 22.697,253.143 22.832,257.651 24.152 C 264.428 26.136,278.543 29.451,283.400 30.201 C 291.019 31.377,294.329 33.006,300.352 38.549 C 306.756 44.442,308.851 44.569,315.017 39.441 C 323.624 32.284,329.133 32.225,339.400 39.181 C 341.006 40.269,343.322 41.282,346.400 42.242 C 358.700 46.076,363.904 51.068,373.734 68.460 C 381.040 81.385,383.334 86.786,386.233 97.882 C 387.026 100.917,388.654 105.858,389.850 108.862 C 391.150 112.129,392.901 117.757,394.205 122.862 C 395.404 127.558,396.852 133.110,397.423 135.200 C 397.993 137.290,398.555 139.900,398.672 141.000 C 399.905 152.682,399.909 152.484,399.955 75.500 L 400.000 0.000 200.000 0.000 L 0.000 0.000 0.038 133.300 M399.587 166.500 C 399.580 167.435,399.316 170.090,399.000 172.400 C 398.661 174.880,398.420 179.964,398.413 184.814 C 398.396 195.593,396.719 205.929,393.358 215.962 C 393.033 216.931,392.321 220.891,391.776 224.762 C 389.524 240.748,385.526 249.510,374.056 263.597 C 370.306 268.202,370.028 269.288,369.575 281.048 C 368.761 302.210,367.796 310.549,364.381 325.916 C 362.528 334.256,362.767 336.075,366.106 339.054 C 369.758 342.312,371.181 345.657,371.194 351.013 C 371.212 358.283,368.638 361.480,359.734 365.245 C 352.219 368.422,351.382 369.409,348.572 378.400 C 345.359 388.683,345.371 391.494,348.664 399.400 C 349.672 401.820,351.116 405.290,351.874 407.111 C 355.650 416.182,354.052 422.494,345.635 431.761 C 344.073 433.481,341.805 436.570,340.596 438.624 C 339.387 440.679,337.252 443.674,335.852 445.280 C 332.281 449.378,331.893 450.257,331.385 455.400 C 331.105 458.238,330.152 461.859,329.595 462.203 C 328.144 463.100,331.657 463.200,364.600 463.200 L 400.000 463.200 400.000 314.000 C 400.000 231.940,399.910 164.800,399.800 164.800 C 399.690 164.800,399.594 165.565,399.587 166.500 M0.022 367.500 L 0.000 463.200 135.000 463.200 C 209.250 463.200,270.000 463.077,270.000 462.926 C 270.000 462.776,269.595 461.831,269.100 460.826 C 268.233 459.067,268.193 458.494,268.000 445.200 C 267.769 429.294,267.642 428.800,263.785 428.800 C 260.868 428.800,252.984 433.589,247.577 438.646 C 243.608 442.358,241.716 443.562,236.970 445.401 C 232.395 447.174,229.538 449.219,225.612 453.533 C 222.528 456.921,220.929 457.959,217.158 459.025 C 208.935 461.347,204.647 461.491,200.600 459.580 L 197.800 458.257 191.149 458.350 C 184.577 458.443,180.291 457.919,171.600 455.963 C 165.900 454.680,159.321 451.640,156.408 448.943 C 153.723 446.457,152.842 444.875,148.083 434.000 C 144.297 425.346,142.939 421.484,141.793 416.117 C 140.142 408.387,139.685 408.256,120.400 409.980 C 92.772 412.451,73.039 409.882,61.964 402.373 C 49.639 394.016,45.186 374.329,51.773 357.315 C 54.150 351.176,53.640 348.914,49.052 345.242 C 41.618 339.293,40.535 337.674,40.037 331.768 C 39.759 328.482,39.548 327.730,38.389 325.899 C 33.242 317.770,32.527 313.715,34.649 304.671 C 37.607 292.057,34.709 288.214,22.815 288.979 C 10.800 289.753,3.511 285.036,0.814 274.741 C 0.048 271.814,0.044 272.260,0.022 367.500 " stroke="none" fill="#ffffff" fill-rule="evenodd"></path><path id="path2" d="M134.600 3.602 C 130.839 4.370,129.259 4.878,125.600 6.498 C 124.390 7.034,121.241 8.060,118.602 8.779 C 112.147 10.537,110.574 11.401,107.750 14.744 C 104.840 18.188,102.916 19.287,97.584 20.551 C 85.238 23.478,78.656 28.748,68.326 43.979 C 65.872 47.598,62.410 52.169,60.632 54.137 C 53.944 61.544,51.382 65.183,47.778 72.400 C 42.692 82.581,42.010 85.911,41.589 102.600 C 41.384 110.697,41.067 116.110,40.673 118.200 C 39.225 125.887,34.612 145.275,32.440 152.800 C 29.586 162.690,28.990 165.494,28.360 172.000 C 27.835 177.420,27.702 176.149,30.204 189.600 C 32.069 199.627,31.798 200.915,26.232 208.501 C 20.041 216.937,15.154 225.840,12.016 234.400 C 11.089 236.930,9.249 241.430,7.927 244.400 C 0.741 260.550,-0.956 267.733,0.796 274.584 C 3.464 285.015,10.720 289.758,22.815 288.979 C 34.709 288.214,37.607 292.057,34.649 304.671 C 32.527 313.715,33.242 317.770,38.389 325.899 C 39.548 327.730,39.759 328.482,40.037 331.768 C 40.535 337.674,41.618 339.293,49.052 345.242 C 53.640 348.914,54.150 351.176,51.773 357.315 C 45.186 374.329,49.639 394.016,61.964 402.373 C 73.039 409.882,92.772 412.451,120.400 409.980 C 139.685 408.256,140.142 408.387,141.793 416.117 C 142.939 421.484,144.297 425.346,148.083 434.000 C 152.842 444.875,153.723 446.457,156.408 448.943 C 159.321 451.640,165.900 454.680,171.600 455.963 C 180.291 457.919,184.577 458.443,191.149 458.350 L 197.800 458.257 200.600 459.580 C 204.647 461.491,208.935 461.347,217.158 459.025 C 220.929 457.959,222.528 456.921,225.612 453.533 C 229.538 449.219,232.395 447.174,236.970 445.401 C 241.716 443.562,243.608 442.358,247.577 438.646 C 252.984 433.589,260.868 428.800,263.785 428.800 C 267.642 428.800,267.769 429.294,268.000 445.200 C 268.209 459.643,268.735 463.200,270.660 463.200 C 272.106 463.200,271.943 428.816,270.484 426.084 C 267.022 419.600,253.999 423.764,243.200 434.809 C 239.303 438.794,238.861 439.060,233.288 440.776 C 229.188 442.038,229.166 442.052,225.215 445.786 C 220.465 450.275,217.568 451.830,210.600 453.631 C 203.767 455.397,203.901 455.387,200.371 454.367 L 197.163 453.440 192.082 454.156 L 187.000 454.872 178.994 453.261 C 165.591 450.563,159.320 447.701,156.613 443.045 C 153.831 438.261,146.450 419.955,145.602 415.734 C 143.405 404.807,142.169 404.220,124.600 405.768 C 74.183 410.207,55.705 402.940,53.175 377.674 C 52.416 370.092,53.218 365.793,56.811 358.200 C 59.958 351.550,59.326 348.672,53.611 343.637 C 44.483 335.594,43.797 333.921,47.852 329.585 C 50.038 327.249,50.053 327.281,45.838 325.241 C 37.631 321.269,35.980 315.727,39.538 304.098 C 44.339 288.407,41.056 284.693,22.570 284.908 C 13.207 285.016,12.094 284.697,7.721 280.648 C 1.370 274.768,1.148 269.275,6.794 257.752 C 8.830 253.598,11.193 248.760,12.046 247.000 C 15.621 239.621,17.572 238.246,18.744 242.275 C 21.317 251.115,21.153 253.831,17.916 256.000 C 7.675 262.862,9.613 269.731,21.419 268.415 C 26.539 267.844,28.407 267.993,34.072 269.423 C 38.773 270.609,41.352 270.670,43.047 269.637 C 45.821 267.945,44.830 265.397,41.036 264.467 C 30.042 261.771,28.007 260.991,25.212 258.400 C 22.983 256.335,23.287 254.978,26.333 253.387 C 27.580 252.736,29.718 251.347,31.085 250.301 C 32.453 249.256,33.735 248.400,33.937 248.400 C 34.138 248.400,34.526 248.130,34.800 247.800 C 36.685 245.529,43.929 249.822,46.381 254.663 C 49.231 260.288,56.566 266.800,60.054 266.800 C 62.218 266.800,60.172 260.172,56.367 254.858 C 54.500 252.251,54.345 250.388,55.599 245.600 C 56.588 241.822,57.753 230.416,57.394 228.022 C 56.368 221.182,50.384 220.227,47.626 226.464 C 43.859 234.983,42.176 237.714,38.444 241.368 L 36.434 243.337 34.793 242.845 C 29.419 241.235,29.843 234.893,36.386 219.000 C 37.221 216.972,38.000 214.512,38.000 213.904 C 38.000 213.536,39.270 212.208,40.822 210.954 C 46.238 206.578,46.344 201.897,41.013 202.497 C 38.023 202.834,37.404 201.613,35.190 191.000 C 34.547 187.920,33.640 183.600,33.173 181.400 C 31.884 175.325,32.799 167.311,35.798 158.405 C 36.569 156.115,38.198 149.823,39.417 144.421 C 40.637 139.019,42.439 131.608,43.422 127.951 C 45.420 120.519,46.191 115.415,47.799 99.000 C 49.115 85.563,50.509 80.241,54.871 72.000 C 58.538 65.072,59.729 63.395,64.383 58.600 C 67.293 55.602,69.340 53.053,70.808 50.600 C 71.992 48.620,74.232 45.650,75.785 44.000 C 77.339 42.350,79.809 39.380,81.275 37.400 C 85.684 31.443,90.692 28.400,96.085 28.400 C 98.894 28.400,103.522 30.675,105.765 33.159 C 106.510 33.984,108.000 33.469,108.000 32.386 C 108.000 32.227,108.603 31.095,109.341 29.871 C 110.462 28.009,110.726 27.100,110.956 24.322 C 111.403 18.915,113.139 16.820,117.200 16.787 C 121.443 16.752,126.964 14.837,129.671 12.460 C 130.460 11.767,131.292 11.200,131.519 11.200 C 131.747 11.200,132.007 10.980,132.096 10.711 C 132.363 9.911,137.922 9.806,140.143 10.560 C 142.744 11.443,147.490 11.368,152.680 10.363 C 163.775 8.212,165.749 11.676,159.998 23.200 C 157.036 29.134,157.415 33.034,160.845 31.904 C 161.831 31.579,162.800 30.170,162.800 29.060 C 162.800 28.783,163.423 27.953,164.185 27.214 L 165.571 25.871 165.961 26.897 C 166.175 27.461,166.542 28.040,166.775 28.185 C 167.009 28.329,167.200 28.752,167.200 29.124 C 167.201 29.955,168.673 31.701,169.938 32.372 C 170.806 32.832,175.543 33.827,185.323 35.603 C 188.600 36.199,189.621 36.575,191.523 37.888 C 196.971 41.649,198.471 41.043,200.957 34.076 C 203.774 26.180,201.707 23.566,194.605 26.043 C 190.251 27.562,188.912 27.458,184.034 25.226 C 182.145 24.362,179.437 23.358,178.016 22.995 C 174.916 22.203,173.518 21.279,172.649 19.447 C 170.575 15.077,173.747 12.585,179.338 14.193 C 180.472 14.519,182.927 14.953,184.794 15.159 C 187.809 15.491,188.769 15.825,193.394 18.152 C 199.871 21.412,199.960 21.432,203.898 20.426 C 209.900 18.894,217.124 19.598,225.800 22.562 C 228.000 23.313,230.714 24.208,231.831 24.550 C 232.949 24.892,235.317 25.989,237.093 26.988 C 241.258 29.330,243.083 29.595,246.803 28.399 C 250.320 27.268,252.085 27.437,257.107 29.381 C 259.146 30.171,262.746 31.150,265.107 31.557 C 267.468 31.963,271.193 32.971,273.384 33.796 C 276.764 35.069,277.966 35.321,281.301 35.456 C 287.160 35.694,291.236 37.718,299.832 44.656 C 301.829 46.268,304.237 47.860,305.182 48.194 C 309.907 49.861,317.650 47.783,319.592 44.328 C 323.489 37.394,329.521 36.933,336.800 43.013 C 339.880 45.586,341.290 46.230,345.572 47.016 C 354.974 48.744,361.888 55.501,367.808 68.746 C 370.553 74.887,371.150 76.028,373.386 79.400 C 377.099 84.998,380.156 92.671,382.566 102.442 C 383.348 105.609,384.628 109.887,385.411 111.950 C 387.174 116.592,387.829 119.416,388.396 124.800 C 389.147 131.936,390.519 135.821,395.598 145.200 C 397.743 149.162,397.404 171.239,395.149 174.400 C 393.713 176.413,393.329 180.726,393.761 190.000 C 394.115 197.622,393.476 201.603,390.197 212.200 C 387.776 220.023,387.314 222.008,386.796 226.800 C 385.451 239.230,381.055 248.102,370.872 258.935 C 365.776 264.356,364.859 267.541,364.808 280.000 C 364.761 291.472,363.724 303.181,362.230 309.093 C 360.666 315.283,360.179 317.995,359.814 322.529 C 359.675 324.249,359.197 327.399,358.752 329.529 C 357.433 335.835,358.191 338.314,362.631 342.212 C 370.209 348.865,368.206 357.966,358.400 361.435 C 350.081 364.378,347.527 366.268,344.297 371.871 C 341.356 376.974,339.894 376.614,335.877 369.799 C 331.748 362.794,326.123 362.153,322.243 368.246 C 319.289 372.885,320.069 385.056,323.688 390.794 C 325.049 392.951,325.429 394.293,326.002 398.965 C 326.726 404.878,329.923 412.321,332.926 415.089 C 335.997 417.920,339.295 418.574,342.446 416.977 C 347.896 414.215,347.281 418.586,340.885 428.059 C 339.347 430.337,337.178 433.748,336.065 435.640 C 334.951 437.531,332.948 440.411,331.612 442.040 C 328.918 445.325,328.120 447.339,327.736 451.829 C 327.403 455.728,327.939 463.200,328.552 463.200 C 329.676 463.200,330.947 459.694,331.380 455.400 C 331.900 450.242,332.283 449.375,335.852 445.280 C 337.252 443.674,339.387 440.679,340.596 438.624 C 341.805 436.570,344.073 433.481,345.635 431.761 C 354.052 422.494,355.650 416.182,351.874 407.111 C 351.116 405.290,349.672 401.820,348.664 399.400 C 345.371 391.494,345.359 388.683,348.572 378.400 C 351.382 369.409,352.219 368.422,359.734 365.245 C 368.638 361.480,371.212 358.283,371.194 351.013 C 371.181 345.657,369.758 342.312,366.106 339.054 C 362.767 336.075,362.528 334.256,364.381 325.916 C 367.796 310.549,368.761 302.210,369.575 281.048 C 370.028 269.288,370.306 268.202,374.056 263.597 C 385.526 249.510,389.524 240.748,391.776 224.762 C 392.321 220.891,393.033 216.931,393.358 215.962 C 396.719 205.929,398.396 195.593,398.413 184.814 C 398.421 179.575,398.648 175.079,399.041 172.400 C 399.888 166.619,400.096 152.540,399.414 147.200 C 399.119 144.890,398.784 142.100,398.669 141.000 C 398.554 139.900,397.993 137.290,397.423 135.200 C 396.852 133.110,395.404 127.558,394.205 122.862 C 392.901 117.757,391.150 112.129,389.850 108.862 C 388.654 105.858,387.026 100.917,386.233 97.882 C 383.334 86.786,381.040 81.385,373.734 68.460 C 363.904 51.068,358.700 46.076,346.400 42.242 C 343.322 41.282,341.006 40.269,339.400 39.181 C 329.133 32.225,323.624 32.284,315.017 39.441 C 308.851 44.569,306.756 44.442,300.352 38.549 C 294.329 33.006,291.019 31.377,283.400 30.201 C 278.543 29.451,264.428 26.136,257.651 24.152 C 253.143 22.832,252.217 22.697,247.251 22.629 C 241.805 22.554,241.796 22.553,237.618 20.822 C 228.085 16.875,214.794 14.063,203.600 13.624 C 195.964 13.325,195.724 13.289,192.200 11.913 C 188.351 10.409,178.140 8.184,173.200 7.772 C 171.550 7.635,168.490 6.960,166.400 6.273 C 162.744 5.071,162.335 5.023,155.600 5.004 C 149.828 4.987,148.284 4.858,146.800 4.265 C 142.593 2.583,140.223 2.455,134.600 3.602 M136.785 32.338 C 136.023 32.744,134.528 33.580,133.462 34.194 C 131.819 35.141,130.874 35.357,127.262 35.610 C 123.250 35.892,121.160 36.382,117.958 37.789 C 114.778 39.188,114.501 40.104,116.680 42.016 C 121.771 46.487,133.591 45.910,138.722 40.940 C 143.204 36.599,141.659 29.739,136.785 32.338 M107.200 37.338 C 107.200 38.533,107.346 38.800,108.000 38.800 C 108.511 38.800,108.800 38.533,108.800 38.062 C 108.800 37.656,108.440 36.998,108.000 36.600 C 107.214 35.889,107.200 35.901,107.200 37.338 M172.000 50.916 C 169.820 52.015,170.694 58.800,173.016 58.800 C 175.381 58.800,176.634 53.111,174.674 51.270 C 173.604 50.265,173.357 50.232,172.000 50.916 M144.200 52.732 C 137.724 54.661,136.093 58.223,140.049 61.797 C 140.903 62.568,142.007 63.224,142.501 63.254 C 150.323 63.726,150.842 63.559,151.616 60.334 C 153.158 53.905,150.255 50.929,144.200 52.732 M122.239 55.474 C 118.657 58.265,117.581 61.302,119.475 63.278 C 122.442 66.375,129.200 61.988,129.200 56.965 C 129.200 53.724,125.502 52.932,122.239 55.474 M204.200 54.786 C 201.736 55.820,196.765 63.714,197.668 65.160 C 198.749 66.891,201.664 66.379,205.207 63.833 C 206.248 63.085,208.383 61.809,209.950 60.998 C 213.351 59.238,213.496 58.638,210.923 56.997 C 209.890 56.339,208.585 55.498,208.023 55.129 C 206.903 54.395,205.444 54.264,204.200 54.786 M262.900 67.082 C 260.601 67.525,262.233 69.600,264.880 69.600 C 266.731 69.600,266.800 69.558,266.800 68.443 C 266.800 66.896,265.758 66.532,262.900 67.082 M181.278 69.319 C 180.575 70.045,180.000 70.901,180.000 71.223 C 180.000 71.883,179.202 72.445,175.908 74.102 C 172.856 75.637,171.098 77.788,169.659 81.748 C 169.010 83.537,167.741 86.520,166.839 88.379 C 165.562 91.011,165.200 92.218,165.200 93.843 L 165.200 95.927 166.784 95.162 C 167.747 94.697,169.233 93.313,170.572 91.635 C 171.784 90.116,173.941 87.844,175.364 86.586 C 178.383 83.919,178.359 83.967,178.799 79.800 C 179.361 74.465,180.554 73.200,185.023 73.200 C 188.024 73.200,188.800 72.483,188.800 69.711 L 188.800 68.000 185.678 68.000 C 182.673 68.000,182.510 68.049,181.278 69.319 M85.169 74.369 C 83.673 75.865,83.675 76.722,85.184 84.320 C 87.180 94.366,85.492 96.348,78.143 92.585 C 75.981 91.478,75.334 91.298,74.949 91.698 C 73.838 92.854,74.270 100.478,75.821 107.092 C 77.403 113.837,76.326 114.390,68.894 110.647 C 65.192 108.783,63.200 108.679,63.200 110.351 C 63.200 112.988,64.437 114.678,70.263 120.000 C 71.346 120.990,73.368 123.462,74.755 125.493 C 79.222 132.032,83.085 134.840,86.797 134.247 C 88.306 134.006,90.259 135.097,93.018 137.726 C 97.932 142.406,100.506 142.151,103.243 136.711 C 105.281 132.661,105.985 132.288,111.710 132.216 C 117.818 132.139,118.768 131.023,118.790 123.908 C 118.808 118.206,117.729 116.801,113.326 116.798 C 106.835 116.792,104.213 114.353,103.229 107.402 C 102.760 104.091,102.213 103.246,99.220 101.213 C 94.693 98.139,93.305 94.551,92.362 83.490 C 91.571 74.203,88.821 70.717,85.169 74.369 M143.743 80.318 C 142.733 80.393,141.811 80.746,141.381 81.221 C 140.993 81.649,140.372 82.000,140.000 82.000 C 139.628 82.000,138.981 82.380,138.562 82.844 C 138.143 83.308,136.720 84.231,135.400 84.894 C 128.390 88.420,127.203 98.627,133.894 97.841 C 137.584 97.407,139.472 95.393,141.806 89.400 C 142.436 87.781,143.531 85.925,144.401 85.000 C 147.480 81.727,147.245 80.056,143.743 80.318 M291.925 86.700 C 291.135 87.525,290.191 88.740,289.829 89.400 C 289.466 90.060,288.634 91.320,287.979 92.200 C 286.604 94.047,285.200 96.712,285.200 97.475 C 285.200 98.930,291.269 97.562,292.885 95.742 C 295.074 93.276,295.837 87.380,294.180 85.723 C 293.483 85.026,293.562 84.992,291.925 86.700 M230.200 87.870 C 224.909 91.991,223.974 94.323,226.940 96.000 C 228.291 96.764,231.186 95.385,234.108 92.585 C 236.370 90.418,236.499 89.396,234.759 87.414 C 233.182 85.618,233.078 85.628,230.200 87.870 M161.000 98.534 C 156.210 100.421,154.833 101.651,152.414 106.200 C 151.257 108.378,149.664 110.486,147.427 112.800 C 143.637 116.720,142.292 119.131,142.476 121.676 L 142.600 123.400 144.901 123.520 C 147.673 123.665,148.300 123.135,150.621 118.689 C 152.993 114.144,154.897 111.598,157.955 108.879 C 164.532 103.031,166.492 96.370,161.000 98.534 M242.600 101.668 C 242.160 101.920,240.617 103.235,239.171 104.589 C 237.725 105.943,235.748 107.585,234.778 108.237 C 229.586 111.724,230.296 116.802,235.975 116.798 C 238.728 116.796,239.309 116.550,243.059 113.800 C 248.215 110.019,247.786 98.688,242.600 101.668 M296.400 106.448 C 290.602 108.753,288.210 123.248,292.892 127.700 C 294.705 129.424,295.198 129.091,296.002 125.600 C 296.654 122.769,297.677 120.755,299.909 117.908 C 302.102 115.111,302.097 113.822,299.875 109.077 C 298.406 105.941,298.155 105.751,296.400 106.448 M257.400 137.099 C 255.460 137.545,246.433 144.930,244.943 147.290 C 242.449 151.240,244.519 151.633,249.800 148.210 C 256.552 143.834,257.100 143.552,259.276 143.334 C 261.109 143.151,261.608 143.264,262.923 144.165 C 268.858 148.228,272.659 147.934,273.613 143.337 C 274.801 137.616,272.553 135.993,265.603 137.555 C 264.666 137.765,263.455 137.785,262.862 137.600 C 261.430 137.152,258.386 136.873,257.400 137.099 M130.049 149.593 C 129.444 151.614,130.178 153.245,132.039 154.016 C 134.631 155.090,135.848 151.386,133.631 149.169 C 131.910 147.448,130.647 147.598,130.049 149.593 M269.000 152.956 C 262.628 155.744,258.800 159.435,258.800 162.790 C 258.800 167.022,272.644 165.625,277.700 160.882 C 281.519 157.300,274.236 150.665,269.000 152.956 M93.266 155.793 C 92.753 156.076,92.132 156.508,91.886 156.754 C 91.639 157.001,90.131 157.200,88.504 157.200 C 82.989 157.200,79.764 159.853,77.809 166.000 C 76.541 169.983,73.421 177.141,71.793 179.800 C 69.752 183.132,71.716 186.527,77.022 188.837 C 78.110 189.311,80.469 190.384,82.264 191.221 C 87.118 193.485,88.742 193.942,93.559 194.396 C 95.968 194.623,98.878 194.987,100.024 195.205 C 101.171 195.422,103.701 195.600,105.645 195.600 C 115.850 195.600,125.354 203.461,123.585 210.439 C 121.902 217.078,121.875 217.285,122.330 219.732 C 122.575 221.049,123.666 224.003,124.754 226.298 C 126.913 230.849,126.974 232.228,125.052 233.103 C 123.691 233.724,120.435 236.651,118.742 238.777 C 117.805 239.954,116.600 240.922,115.522 241.361 C 111.604 242.961,110.579 243.638,109.500 245.345 C 106.152 250.638,112.594 254.927,117.181 250.458 C 121.795 245.961,121.175 246.289,124.921 246.363 C 126.778 246.400,128.742 246.227,129.286 245.979 C 131.627 244.913,133.057 239.043,131.846 235.475 C 130.646 231.941,131.612 231.159,142.514 226.835 C 149.984 223.871,152.000 222.555,152.000 220.641 C 152.000 218.948,146.217 209.762,142.656 205.800 C 141.003 203.961,140.089 202.288,137.570 196.489 C 135.622 192.006,128.551 189.477,116.200 188.846 C 108.829 188.470,108.130 188.070,105.513 182.743 C 102.693 177.001,102.197 175.177,102.317 171.000 C 102.606 160.987,97.972 153.200,93.266 155.793 M229.400 155.687 C 222.937 157.849,219.262 161.947,224.000 161.710 C 227.933 161.512,230.384 161.101,230.830 160.564 C 231.087 160.254,231.581 160.000,231.927 160.000 C 233.107 160.000,234.800 157.952,234.800 156.525 L 234.800 155.200 232.700 155.243 C 231.545 155.266,230.060 155.466,229.400 155.687 M231.804 165.608 C 227.802 167.470,227.724 171.574,231.613 175.662 C 234.055 178.229,237.875 177.275,242.294 172.995 C 244.891 170.479,244.937 169.740,242.620 167.701 C 239.524 164.976,235.030 164.106,231.804 165.608 M209.311 169.288 C 207.942 170.010,205.782 171.162,204.511 171.849 C 203.240 172.535,200.490 173.585,198.400 174.182 C 196.310 174.779,193.250 175.944,191.600 176.771 C 189.950 177.598,186.801 178.968,184.603 179.816 C 174.121 183.859,178.364 188.075,189.540 184.722 C 193.453 183.548,194.289 183.440,199.800 183.393 C 206.545 183.335,207.671 182.984,212.280 179.505 C 219.940 173.721,217.411 165.019,209.311 169.288 M206.400 187.551 C 206.400 188.360,207.578 188.916,208.200 188.400 C 209.129 187.629,208.915 187.200,207.600 187.200 C 206.940 187.200,206.400 187.358,206.400 187.551 M261.200 187.881 C 257.342 189.285,256.008 194.430,258.839 196.988 C 263.942 201.598,269.179 202.197,269.194 198.173 C 269.218 191.892,265.022 186.491,261.200 187.881 M212.400 200.515 C 210.787 201.327,210.798 203.371,212.419 204.210 C 214.542 205.307,217.600 203.838,217.600 201.720 C 217.600 200.159,214.524 199.446,212.400 200.515 M68.400 208.588 C 68.400 208.871,68.625 209.272,68.900 209.480 C 69.602 210.011,72.123 210.123,71.805 209.609 C 71.666 209.384,71.203 209.200,70.776 209.200 C 70.349 209.200,70.000 209.041,70.000 208.847 C 70.000 208.652,69.640 208.399,69.200 208.284 C 68.707 208.155,68.400 208.272,68.400 208.588 M36.069 209.862 C 38.055 211.659,32.404 218.000,28.816 218.000 C 27.107 218.000,31.561 211.101,34.200 209.661 C 35.240 209.093,35.216 209.091,36.069 209.862 M265.100 214.043 C 263.633 214.875,264.853 217.200,266.757 217.200 C 267.519 217.200,267.632 217.015,267.525 215.945 C 267.374 214.430,266.134 213.457,265.100 214.043 M158.842 217.604 C 155.977 219.202,153.642 223.200,155.572 223.200 C 155.777 223.200,156.002 223.605,156.072 224.100 C 156.387 226.318,161.052 225.010,162.437 222.316 C 164.455 218.391,162.357 215.642,158.842 217.604 M231.800 218.969 C 225.186 221.934,226.049 229.999,232.996 230.147 C 236.661 230.225,238.011 228.319,237.424 223.894 C 236.807 219.247,234.902 217.579,231.800 218.969 M202.446 223.833 C 201.225 224.466,200.814 225.132,200.806 226.486 C 200.797 228.032,202.175 228.726,203.279 227.732 C 205.563 225.675,204.897 222.561,202.446 223.833 M170.000 230.870 C 167.755 231.508,167.200 232.248,167.200 234.600 C 167.200 239.116,171.938 239.292,174.184 234.859 C 174.899 233.447,174.598 232.770,172.428 230.900 C 171.771 230.335,171.879 230.336,170.000 230.870 M259.717 253.584 C 255.558 257.209,255.182 257.889,256.395 259.593 C 260.123 264.828,265.824 261.001,265.010 253.809 C 264.528 249.546,264.358 249.538,259.717 253.584 M281.467 257.467 C 280.683 258.251,281.192 259.332,282.000 258.600 C 282.440 258.202,282.800 257.724,282.800 257.538 C 282.800 257.137,281.848 257.086,281.467 257.467 M244.936 259.774 C 239.530 261.464,238.333 265.753,241.435 272.311 C 242.368 274.282,242.470 274.886,242.263 277.181 C 241.804 282.251,243.942 285.483,250.214 289.200 C 256.306 292.810,264.647 289.684,265.837 283.345 C 266.647 279.024,264.512 277.771,258.723 279.170 C 253.148 280.518,251.432 280.355,249.552 278.300 C 247.162 275.686,246.980 274.695,248.209 270.953 C 251.627 260.543,250.860 257.921,244.936 259.774 M59.459 276.900 C 54.058 285.032,53.254 287.462,55.442 289.038 C 57.817 290.748,58.862 291.758,59.486 292.948 C 60.140 294.194,61.131 300.932,61.176 304.437 C 61.256 310.608,65.189 314.809,69.195 313.002 C 73.108 311.238,72.627 303.587,67.927 292.800 C 67.687 292.250,67.351 289.308,67.180 286.262 C 66.833 280.075,65.985 277.038,63.996 274.861 C 62.332 273.038,61.893 273.235,59.459 276.900 M65.335 329.938 C 62.086 330.597,62.075 330.603,63.010 331.300 C 63.527 331.685,64.072 332.000,64.220 332.000 C 64.514 332.000,67.469 334.379,70.582 337.123 C 76.504 342.343,81.141 341.537,80.228 335.446 C 79.376 329.769,74.700 328.039,65.335 329.938 M300.100 420.012 C 298.862 420.510,298.928 422.155,300.260 423.962 C 305.543 431.132,311.600 433.304,311.600 428.030 C 311.600 422.205,305.400 417.882,300.100 420.012 " stroke="none" fill="#908c86" fill-rule="evenodd"></path></g></svg>