<svg xmlns="http://www.w3.org/2000/svg" xml:space="preserve" viewBox="0 0 64.482 64.482">
  <path d="M11.086 64.481h42.311c6.112 0 11.085-4.974 11.085-11.086V11.084C64.482 4.973 59.509 0 53.397 0H11.086C4.973 0 0 4.973 0 11.084v42.312c0 6.112 4.973 11.085 11.086 11.085zM6 11.084A5.09 5.09 0 0 1 11.086 6h42.311a5.09 5.09 0 0 1 5.085 5.084v42.312a5.091 5.091 0 0 1-5.085 5.086H11.086A5.09 5.09 0 0 1 6 53.397V11.084z"/>
  <path d="m27.99 41.708 4.242 4.241.003-.002.002.002 4.241-4.241-.002-.003 9.535-9.534-4.242-4.242-6.472 6.472V18.533h-6v15.993l-6.598-6.597-4.242 4.242 9.535 9.534z"/>
</svg>
