<svg xmlns="http://www.w3.org/2000/svg" version="1.0" viewBox="0 0 237 253.286">
  <path fill="#d71919" stroke="#bebebe" stroke-width="12" d="M6 6.5v32.892C6.039 97.966 19.202 215.972 118.5 247 217.8 215.971 230.961 97.963 231 39.39V6.5"/>
  <path fill="#bebebe" fill-rule="evenodd" d="m73.02 71.492-14.196-4.749-6.676 13.382-6.676-13.382-14.197 4.749 4.755-14.177-13.401-6.666 13.401-6.667-4.755-14.176 14.197 4.748 6.676-13.382 6.676 13.382 14.196-4.748-4.755 14.176 13.401 6.667-13.4 6.666zM203.454 10.73 36.93 169.683c6.877 15.96 15.59 30.365 26.636 41.183L228.75 53.188l-.669-41.827Z"/>
  <path fill="#bebebe" fill-rule="evenodd" d="M.002 0h236.996v12H.002Z"/>
</svg>
