<?xml version="1.0" encoding="UTF-8" standalone="no"?>
<svg
   version="1.0"
   viewBox="0 0 237 253.2861"
   id="svg3"
   sodipodi:docname="Flag_of_Molise_clean_simplified_resized.svg"
   width="237"
   height="253.2861"
   inkscape:version="1.3 (0e150ed, 2023-07-21)"
   xmlns:inkscape="http://www.inkscape.org/namespaces/inkscape"
   xmlns:sodipodi="http://sodipodi.sourceforge.net/DTD/sodipodi-0.dtd"
   xmlns="http://www.w3.org/2000/svg"
   xmlns:svg="http://www.w3.org/2000/svg">
  <defs
     id="defs3" />
  <sodipodi:namedview
     id="namedview3"
     pagecolor="#ffffff"
     bordercolor="#666666"
     borderopacity="1.0"
     inkscape:showpageshadow="2"
     inkscape:pageopacity="0.0"
     inkscape:pagecheckerboard="0"
     inkscape:deskcolor="#d1d1d1"
     inkscape:zoom="0.472"
     inkscape:cx="119.70339"
     inkscape:cy="149.36441"
     inkscape:window-width="640"
     inkscape:window-height="452"
     inkscape:window-x="1236"
     inkscape:window-y="502"
     inkscape:window-maximized="0"
     inkscape:current-layer="svg3" />
  <path
     fill="#d71919"
     stroke="#bebebe"
     stroke-width="12"
     d="M 6,6.5 V 39.392 C 6.039,97.966 19.202,215.972 118.5,247 217.8,215.971 230.961,97.963 231,39.39 V 6.5"
     id="path1" />
  <path
     fill="#bebebe"
     fill-rule="evenodd"
     d="M 73.02,71.492 58.824,66.743 52.148,80.125 45.472,66.743 31.275,71.492 36.03,57.315 22.629,50.649 36.03,43.982 31.275,29.806 l 14.197,4.748 6.676,-13.382 6.676,13.382 14.196,-4.748 -4.755,14.176 13.401,6.667 -13.4,6.666 z M 203.454,10.73 36.93,169.683 c 6.877,15.96 15.59,30.365 26.636,41.183 L 228.75,53.188 228.081,11.361 Z"
     id="path2" />
  <path
     fill="#bebebe"
     fill-rule="evenodd"
     d="M 0.002,0 H 236.998 V 12 H 0.002 Z"
     id="path3" />
</svg>
