<svg xmlns="http://www.w3.org/2000/svg" version="1.0" viewBox="0 0 750 500">
  <path fill="#0085ce" fill-rule="evenodd" d="M0 0h750v500H0z"/>
  <g style="text-indent:0;text-align:start;line-height:125%;text-transform:none;block-progression:tb;marker:none;-inkscape-font-specification:Arial" word-spacing="0">
    <path fill="#fff" stroke="#fbffff" stroke-width="2.26036549" d="m-443.079 241.173 23.927-11.358 5.036 10.609c1.012 2.133 1.567 3.856 1.664 5.17.097 1.313-.241 2.56-1.014 3.74-.773 1.18-1.818 2.083-3.134 2.708-1.698.806-3.39.936-5.075.39-1.686-.547-3.232-1.893-4.637-4.039-.005 1.03-.1 1.854-.285 2.475-.41 1.328-1.055 2.708-1.935 4.139l-4.537 7.253-1.89-3.982 3.475-5.53c.997-1.606 1.734-2.89 2.212-3.85.477-.96.756-1.749.836-2.366a5.26 5.26 0 0 0-.049-1.747c-.094-.395-.335-1-.722-1.817l-1.744-3.672-10.625 5.044zm14.87-3.179 3.23 6.806c.688 1.447 1.375 2.508 2.061 3.182.687.674 1.46 1.067 2.32 1.179a4.3 4.3 0 0 0 2.448-.383c1.132-.537 1.867-1.39 2.206-2.557.339-1.167.088-2.638-.754-4.411l-3.595-7.573zm1.184 32.858 21.94-14.836 10.727 15.863-2.589 1.751-8.764-12.96-6.72 4.544 8.208 12.137-2.574 1.74-8.208-12.136-7.467 5.05 9.108 13.469-2.59 1.75zm34.699 26.238 2.362-2.02 7.304 8.516-7.47 6.386c-2.163-.417-4.103-1.096-5.819-2.037a15.807 15.807 0 0 1-4.452-3.61c-1.69-1.977-2.803-4.136-3.338-6.475-.535-2.34-.353-4.607.545-6.8.897-2.194 2.335-4.136 4.312-5.827 1.96-1.674 4.138-2.828 6.537-3.46 2.399-.633 4.667-.533 6.806.301 2.139.834 4.065 2.253 5.78 4.258 1.244 1.455 2.133 2.973 2.667 4.552.535 1.58.666 3.064.395 4.452-.27 1.388-.935 2.836-1.992 4.342l-2.714-1.84c.767-1.178 1.252-2.242 1.454-3.192.203-.95.124-1.991-.236-3.126-.36-1.134-.974-2.21-1.842-3.226-1.041-1.217-2.127-2.112-3.257-2.683-1.13-.57-2.23-.87-3.3-.898a9.177 9.177 0 0 0-3.077.432c-1.683.551-3.252 1.45-4.708 2.694-1.794 1.534-3.031 3.126-3.712 4.778-.68 1.65-.808 3.317-.384 4.999a10.99 10.99 0 0 0 2.338 4.514 11.76 11.76 0 0 0 3.554 2.809c1.383.719 2.569 1.147 3.558 1.284l3.748-3.205zm8.166 23.955 18.568-18.888 2.5 2.457-18.568 18.888zm21.946-1.909c2.76-3.42 5.84-5.358 9.24-5.81 3.4-.453 6.551.493 9.457 2.838 1.902 1.535 3.25 3.374 4.045 5.516.794 2.142.935 4.35.424 6.623-.511 2.273-1.599 4.44-3.263 6.502-1.687 2.09-3.618 3.62-5.792 4.588-2.175.97-4.378 1.253-6.61.854-2.23-.4-4.241-1.323-6.031-2.768-1.94-1.565-3.296-3.433-4.067-5.604a11.626 11.626 0 0 1-.375-6.64 14.947 14.947 0 0 1 2.972-6.099zm2.778 2.312c-2.005 2.483-2.916 4.979-2.734 7.486.182 2.507 1.28 4.574 3.295 6.2 2.053 1.657 4.325 2.299 6.816 1.926 2.491-.373 4.807-1.886 6.948-4.538 1.354-1.678 2.252-3.371 2.695-5.08.443-1.709.396-3.349-.14-4.919-.536-1.57-1.483-2.903-2.842-4-1.93-1.558-4.127-2.236-6.59-2.033-2.462.203-4.945 1.855-7.448 4.958zm22.326 29.914 4.487-26.103 3.543.61 10.187 22.85 3.523-20.494 3.312.57-4.487 26.102-3.543-.61-10.184-22.868-3.526 20.512zm34.173 6.043.05-26.485 19.15.036-.006 3.126-15.645-.03-.016 8.112 14.652.028-.006 3.107-14.652-.028-.017 9.015 16.26.031-.006 3.126zm51.617-4.635-11.214-23.994 4.78-2.234 13.618 14.336a195.76 195.76 0 0 1 2.806 3.016c-.135-1-.309-2.482-.52-4.443l-2.058-19.38 4.272-1.996 11.213 23.995-3.06 1.43-9.386-20.083 2.413 23.341-2.864 1.34-16.486-17.184 9.546 20.427zm26.604-28.513c-2.049-3.89-2.608-7.485-1.679-10.786.93-3.3 3.047-5.82 6.35-7.56 2.164-1.14 4.386-1.65 6.667-1.531 2.282.118 4.365.862 6.25 2.231 1.885 1.37 3.445 3.226 4.68 5.57 1.251 2.377 1.891 4.756 1.92 7.136.029 2.381-.582 4.517-1.833 6.407a13.16 13.16 0 0 1-4.929 4.444c-2.205 1.162-4.458 1.667-6.756 1.516a11.626 11.626 0 0 1-6.246-2.284 14.947 14.947 0 0 1-4.424-5.143zm3.222-1.636c1.487 2.824 3.418 4.648 5.793 5.474 2.374.825 4.707.634 6.998-.572 2.334-1.23 3.823-3.062 4.466-5.497.644-2.435.171-5.16-1.417-8.177-1.005-1.907-2.204-3.402-3.598-4.486-1.394-1.083-2.918-1.689-4.572-1.818-1.654-.13-3.253.212-4.799 1.026-2.195 1.156-3.687 2.905-4.475 5.247-.788 2.341-.254 5.275 1.604 8.803zm33.619-9.401-19.798-17.593 2.328-2.62 17.462 15.517 8.664-9.75 2.336 2.075zm19.514-20.928-21.627-15.29 2.023-2.861 21.627 15.289zm3.591-16.011 1.328-3.041c1.238.496 2.367.696 3.387.6 1.019-.097 2.047-.549 3.083-1.356s1.914-1.872 2.634-3.194c.64-1.174 1.03-2.306 1.17-3.395.14-1.089.026-2.019-.343-2.789a3.8 3.8 0 0 0-1.632-1.743c-.73-.397-1.483-.533-2.258-.406-.775.126-1.613.575-2.513 1.347-.583.491-1.713 1.666-3.39 3.523-1.676 1.857-2.975 3.09-3.896 3.7-1.187.793-2.36 1.228-3.518 1.303-1.16.075-2.273-.178-3.341-.76-1.174-.639-2.09-1.57-2.748-2.792-.658-1.222-.902-2.617-.735-4.185.168-1.568.679-3.135 1.531-4.7.94-1.724 2.045-3.094 3.317-4.108 1.273-1.015 2.642-1.582 4.106-1.704 1.465-.12 2.894.164 4.288.854l-1.385 3.072c-1.557-.642-2.96-.71-4.21-.204-1.249.506-2.36 1.653-3.334 3.44-1.013 1.862-1.411 3.404-1.192 4.627.218 1.223.809 2.097 1.771 2.621.836.455 1.688.528 2.555.22.862-.3 2.257-1.545 4.186-3.739 1.928-2.193 3.357-3.64 4.287-4.34 1.361-1.015 2.696-1.584 4.005-1.708 1.309-.123 2.587.155 3.835.834 1.238.674 2.211 1.664 2.92 2.968.709 1.305 1.006 2.787.891 4.446-.115 1.659-.624 3.318-1.529 4.979-1.146 2.105-2.413 3.702-3.802 4.79-1.388 1.089-2.918 1.702-4.591 1.84-1.673.138-3.299-.195-4.877-1zm23.81-23.062-23.977-11.249 8.133-17.337 2.83 1.327-6.645 14.164 7.344 3.446 6.223-13.265 2.813 1.32-6.223 13.264 8.162 3.83 6.906-14.721 2.83 1.327z" color="#000" font-family="Harlow Solid Italic" font-size="37px" font-weight="400" letter-spacing="0" style="marker:none;-inkscape-font-specification:Harlow Solid Italic" transform="matrix(.886 0 0 .884 629.903 83.022)"/>
  </g>
  <path fill="#d71919" stroke="#bebebe" stroke-width="12" d="M262.7 107v32.892c.039 58.574 13.202 176.58 112.5 207.608 99.3-31.029 112.461-149.037 112.5-207.61V107"/>
  <path fill="#bebebe" fill-rule="evenodd" d="m329.72 171.992-14.196-4.749-6.676 13.382-6.676-13.382-14.197 4.749 4.755-14.177-13.401-6.666 13.401-6.667-4.755-14.176 14.197 4.748 6.676-13.382 6.676 13.382 14.196-4.748-4.755 14.176 13.401 6.667-13.4 6.666zm130.434-60.762L293.63 270.183c6.877 15.96 15.59 30.365 26.636 41.183L485.45 153.688l-.669-41.827z"/>
  <path fill="#bebebe" fill-rule="evenodd" d="M256.702 100.5h236.996v12H256.702z"/>
</svg>
