<svg xmlns="http://www.w3.org/2000/svg" version="1.0" viewBox="0 0 750 500">
  <path fill="#d71919" stroke="#bebebe" stroke-width="12" d="M262.7 107v32.892c.039 58.574 13.202 176.58 112.5 207.608 99.3-31.029 112.461-149.037 112.5-207.61V107"/>
  <path fill="#bebebe" fill-rule="evenodd" d="m329.72 171.992-14.196-4.749-6.676 13.382-6.676-13.382-14.197 4.749 4.755-14.177-13.401-6.666 13.401-6.667-4.755-14.176 14.197 4.748 6.676-13.382 6.676 13.382 14.196-4.748-4.755 14.176 13.401 6.667-13.4 6.666zm130.434-60.762L293.63 270.183c6.877 15.96 15.59 30.365 26.636 41.183L485.45 153.688l-.669-41.827z"/>
  <path fill="#bebebe" fill-rule="evenodd" d="M256.702 100.5h236.996v12H256.702z"/>
</svg>
