<svg xmlns="http://www.w3.org/2000/svg" viewBox="0 0 512 512">
  <path fill-rule="evenodd" d="M426.667 106.667v42.666L358 149.33c36.077 31.659 58.188 77.991 58.146 128.474-.065 78.179-53.242 146.318-129.063 165.376-75.82 19.058-154.895-15.838-191.92-84.695C58.142 289.63 72.638 204.42 130.348 151.68a85.333 85.333 0 0 0 33.28 30.507 124.587 124.587 0 0 0-46.294 97.066c1.05 69.942 58.051 126.088 128 126.08 64.072 1.056 118.709-46.195 126.906-109.749 6.124-47.483-15.135-92.74-52.237-118.947L320 256h-42.667V106.667h149.334ZM202.667 64c23.564 0 42.666 19.103 42.666 42.667s-19.102 42.666-42.666 42.666c-23.564 0-42.667-19.102-42.667-42.666C160 83.103 179.103 64 202.667 64Z"/>
</svg>
